<?xml version="1.0" encoding="UTF-8" standalone="no"?>
<svg
   xmlns:dc="http://purl.org/dc/elements/1.1/"
   xmlns:cc="http://creativecommons.org/ns#"
   xmlns:rdf="http://www.w3.org/1999/02/22-rdf-syntax-ns#"
   xmlns:svg="http://www.w3.org/2000/svg"
   xmlns="http://www.w3.org/2000/svg"
   version="1.1"
   width="16"
   height="16"
   id="svg3396">
  <defs
     id="defs3398" />
  <metadata
     id="metadata3401">
    <rdf:RDF>
      <cc:Work
         rdf:about="">
        <dc:format>image/svg+xml</dc:format>
        <dc:type
           rdf:resource="http://purl.org/dc/dcmitype/StillImage" />
        <dc:title></dc:title>
      </cc:Work>
    </rdf:RDF>
  </metadata>
  <g
     transform="translate(-57.714286,-208.07647)"
     id="layer1">
    <path
       d="M 3,3 C 2.5,3 2,3.5 2,4 l 0,4 -2,0.5 0,6 c 0,0 0,0.5 0.5,0.5 L 2,15 3,13.5 3,13 l 10,0 0,0.5 1,1.5 1.5,0 C 16,15 16,14.5 16,14.5 L 16,8.5 14,8 14,4 C 14,3.5 13.5,3 13,3 L 3,3 z m 0,1 10,0 0,6 -10,0 0,-6 z m 0,7 0.71875,0 -0.3125,0.1875 -0.78125,0 L 3,11 z m 1.0625,0 0.71875,0 -0.25,0.1875 -0.75,0 L 4.0625,11 z m 1.09375,0 0.6875,0 -0.15625,0.1875 -0.75,0 L 5.15625,11 z m 1.0625,0 0.71875,0 -0.09375,0.1875 -0.75,0 L 6.21875,11 z m 1,0 0.59375,0 0,0.1875 -0.65625,0 L 7.21875,11 z m 0.96875,0 0.59375,0 0.0625,0.1875 -0.65625,0 0,-0.1875 z m 0.875,0 0.71875,0 0.125,0.1875 -0.75,0 L 9.0625,11 z m 1.09375,0 0.6875,0 0.21875,0.1875 -0.75,0 L 10.15625,11 z m 1.0625,0 0.71875,0 0.28125,0.1875 -0.75,0 -0.25,-0.1875 z m 1.0625,0 0.71875,0 0.375,0.1875 -0.78125,0 L 12.28125,11 z m -9.90625,0.3125 0.8125,0 -0.4375,0.25 -0.875,0 0.5,-0.25 z m 1.21875,0 0.78125,0 -0.3125,0.25 -0.875,0 0.40625,-0.25 z m 1.1875,0 0.8125,0 -0.21875,0.25 -0.875,0 0.28125,-0.25 z m 1.21875,0 0.78125,0 -0.09375,0.25 -0.875,0 L 6,11.3125 z m 1.125,0 0.6875,0 -0.03125,0.25 -0.75,0 0.09375,-0.25 z m 1.0625,0 0.6875,0 0.09375,0.25 -0.75,0 -0.03125,-0.25 z m 1.03125,0 0.78125,0 0.1875,0.25 -0.875,0 -0.09375,-0.25 z m 1.1875,0 0.8125,0 0.28125,0.25 -0.875,0 -0.21875,-0.25 z m 1.21875,0 0.78125,0 0.40625,0.25 -0.875,0 -0.3125,-0.25 z m 1.1875,0 0.8125,0 0.5,0.25 -0.875,0 -0.4375,-0.25 z m -11.1875,0.375 0.90625,0 L 2,12 1,12 1.625,11.6875 z m 1.375,0 0.90625,0 L 3.5,12 2.5,12 3,11.6875 z m 1.34375,0 0.9375,0 L 5,12 4,12 4.34375,11.6875 z m 1.375,0 4.5625,0 L 10.5,12 l -5,0 0.21875,-0.3125 z m 5,0 0.9375,0 L 12,12 11,12 10.71875,11.6875 z m 1.375,0 0.90625,0 0.5,0.3125 -1,0 -0.40625,-0.3125 z m 1.375,0 0.90625,0 L 15,12 14,12 13.46875,11.6875 z"
       transform="translate(57.714286,208.07647)"
       id="path3037-9" />
  </g>
</svg>
