<?xml version="1.0" ?><svg height="60px" version="1.1" viewBox="0 0 60 60" width="60px" xmlns="http://www.w3.org/2000/svg" xmlns:sketch="http://www.bohemiancoding.com/sketch/ns" xmlns:xlink="http://www.w3.org/1999/xlink"><title/><desc/><defs/><g fill="none" fill-rule="evenodd" id="black" stroke="none" stroke-width="1"><g id="slice"/><g fill="#000000" id="twitter" transform="translate(13.000000, 16.000000)"><path d="M28.0521385,2.43669427 C26.8431846,1.0622015 25.1205385,0.186464105 23.2140615,0.154731028 C19.5536,0.0938030905 16.5856538,3.18692339 16.5856538,7.06311604 C16.5856538,7.61324118 16.6442923,8.14969337 16.7573692,8.66467316 C11.2485846,8.30735257 6.36446923,5.43877059 3.09541538,1.1147218 C2.52486154,2.1508617 2.19790769,3.36188271 2.19790769,4.65915037 C2.19790769,7.11498844 3.36809231,9.29452724 5.14663077,10.5814174 C4.06012308,10.5334499 3.03806923,10.2045378 2.14443846,9.66495203 C2.14379231,9.69444497 2.14379231,9.72394494 2.14379231,9.75396245 C2.14379231,13.1835497 4.42859231,16.0607076 7.46083077,16.7309383 C6.90465385,16.888538 6.31907692,16.9710163 5.7146,16.967008 C5.28749231,16.9641758 4.87217692,16.9168118 4.46752308,16.831768 C5.31091538,19.6443777 7.75870769,21.6967663 10.6592923,21.764628 C8.39080769,23.6476963 5.53286923,24.7691933 2.42729231,24.762787 C1.89227692,24.7616833 1.36469231,24.727112 0.846153846,24.6605996 C3.77953077,26.6733139 7.26359231,27.8451711 11.0067615,27.8461531 C23.1985538,27.8493518 29.8657308,17.2395109 29.8657308,8.03676868 C29.8657308,7.73483632 29.8591077,7.43451912 29.8465077,7.13565195 C31.1415615,6.17066645 32.2652231,4.96078915 33.1538462,3.57921901 C31.9652462,4.11501615 30.6876385,4.47086863 29.3470308,4.62013789 C30.7154231,3.77796518 31.7665538,2.43009607 32.2613462,0.813758404 C30.9805077,1.59049229 29.5620385,2.14751286 28.0521385,2.43669427 Z"/></g></g></svg>