<?xml version="1.0" ?><svg height="60px" version="1.1" viewBox="0 0 60 60" width="60px" xmlns="http://www.w3.org/2000/svg" xmlns:sketch="http://www.bohemiancoding.com/sketch/ns" xmlns:xlink="http://www.w3.org/1999/xlink"><title/><desc/><defs/><g fill="none" fill-rule="evenodd" id="black" stroke="none" stroke-width="1"><g id="slice" transform="translate(-600.000000, 0.000000)"/><g fill="#000000" id="linkedin" transform="translate(16.000000, 17.000000)"><path d="M5.88307542,26.8231512 L5.88307542,8.52433895 L0.227370038,8.52433895 L0.227370038,26.8231512 L5.88307542,26.8231512 Z M5.88307542,2.03821455 C5.84938823,0.400659962 4.75801564,-0.846153846 2.98505434,-0.846153846 C1.21163158,-0.846153846 0.0528846154,0.400659962 0.0528846154,2.03821455 C0.0528846154,3.64020234 1.17794439,4.92307692 2.9172185,4.92307692 L2.95090569,4.92307692 C4.75801564,4.92307692 5.88307542,3.64020234 5.88307542,2.03821455 Z M15.1100418,26.8231517 L15.1100418,16.3973729 C15.1100418,15.8394014 15.1503704,15.28143 15.3144472,14.8836682 C15.7630341,13.7682778 16.7839561,12.6136637 18.498199,12.6136637 C20.7438958,12.6136637 22.152278,13.8881587 22.152278,16.3973727 L22.152278,26.8231516 L27.8461538,26.8231517 L27.8461538,16.1183872 C27.8461538,10.3839878 24.7850453,7.71566901 20.7019099,7.71566901 C17.3540813,7.71566901 15.8845724,9.58735929 15.0686083,10.861302 L15.1094893,8.41391226 L9.425462,8.41391226 C9.50722415,10.1657215 9.425462,26.8231516 9.425462,26.8231516 L15.1100418,26.8231517 Z"/></g></g></svg>