<?xml version="1.0" ?><svg height="60px" version="1.1" viewBox="0 0 60 60" width="60px" xmlns="http://www.w3.org/2000/svg" xmlns:sketch="http://www.bohemiancoding.com/sketch/ns" xmlns:xlink="http://www.w3.org/1999/xlink"><title/><desc/><defs/><g fill="none" fill-rule="evenodd" id="black" stroke="none" stroke-width="1"><g id="slice" transform="translate(-800.000000, -500.000000)"/><g fill="#000000" id="reddit" transform="translate(12.000000, 12.000000)"><path d="M37.608,14.7948821 L37.608,14.798205 C37.6137436,14.8800325 37.6153846,14.9614446 37.6153846,15.0424414 C37.6153846,15.9504358 37.3277949,16.8235394 36.8477949,17.5641405 C36.3997949,18.2573897 35.7819487,18.8376588 35.0705641,19.2310123 C35.1161026,19.5923825 35.1427692,19.9566602 35.1427692,20.3196918 C35.1419487,22.274829 34.4761026,24.1967367 33.3167179,25.7369213 L33.3167179,25.737752 L33.3142564,25.737752 C31.1706667,28.6245596 27.8791795,30.3271531 24.5552821,31.1857187 L24.5544615,31.1857187 L24.552,31.1877956 C22.7796923,31.6235166 20.952,31.8461538 19.1247179,31.8461538 C16.4010256,31.8461538 13.6793846,31.3489583 11.1398974,30.3175996 L11.1390769,30.3151074 L11.1366154,30.3151074 C8.50358974,29.216459 5.99487179,27.4698366 4.45641026,24.9107543 C3.62851282,23.5450244 3.17435897,21.9433653 3.17435897,20.3338143 C3.17435897,19.9695366 3.1985641,19.6052589 3.2465641,19.2443041 C2.55364103,18.8492891 1.9534359,18.2889577 1.50789744,17.6202152 C1.032,16.9016286 0.730461538,16.060093 0.692307692,15.1703747 L0.692307692,15.1670518 L0.692307692,15.1637288 L0.692307692,15.1562522 C0.693128205,13.9101482 1.22769231,12.7296724 2.05846154,11.8594764 C2.88923077,10.9892804 4.024,10.4206416 5.24123077,10.4206416 L5.29169231,10.4206416 C5.41928205,10.4119189 5.54810256,10.4069345 5.67692308,10.4069345 C6.28820513,10.4069345 6.90112821,10.5070382 7.48287179,10.7329984 L7.48615385,10.7354906 L7.4894359,10.7363213 C7.98625641,10.948159 8.47979487,11.2036103 8.91958974,11.5575039 C9.06235897,11.4819069 9.21784615,11.3967564 9.39220513,11.3294668 C12.0588718,9.73071539 15.158359,9.11389391 18.1790769,8.9361164 C18.2053333,7.42085394 18.3891282,5.83497891 19.1189744,4.44681905 C19.7269744,3.29375748 20.7817436,2.39573186 22.0379487,2.08462123 L22.0428718,2.08212902 L22.0494359,2.08129829 C22.5277949,1.98742512 23.0102564,1.94422685 23.4894359,1.94422685 C24.7657436,1.94422685 26.0272821,2.25035306 27.2071795,2.72802626 C27.7294359,1.92968897 28.4756923,1.30663697 29.3507692,0.957312477 L29.3589744,0.952328061 L29.3671795,0.949005117 C29.8808205,0.787011596 30.4231795,0.692307692 30.968,0.692307692 C31.542359,0.692307692 32.1212308,0.7986419 32.6635897,1.04412439 L32.6635897,1.04204755 C32.6644103,1.04412439 32.6652308,1.04412439 32.6652308,1.04412439 C32.6693333,1.04537049 32.6726154,1.0478627 32.6754872,1.0478627 C33.4533333,1.35108134 34.1113846,1.91141277 34.5778462,2.60798491 C35.0451282,3.30746462 35.32,4.14526188 35.32,5.00673512 C35.32,5.16540569 35.3113846,5.32449164 35.2929231,5.48357758 L35.2912821,5.48690052 C35.2912821,5.48939273 35.2912821,5.49271568 35.2904615,5.49520788 C35.1989744,6.60839413 34.6422564,7.58533966 33.8537436,8.2819118 C33.0603077,8.98139151 32.0330256,9.40382077 30.9786667,9.40382077 C30.809641,9.40382077 30.6389744,9.39426731 30.4691282,9.37142207 C29.4233846,9.29042531 28.4482051,8.77827656 27.7318974,8.01607628 C27.0131282,7.2551221 26.5499487,6.23830124 26.5499487,5.14089898 C26.5499487,5.08773188 26.5548718,5.03331867 26.5565128,4.98056693 C25.5747692,4.53820001 24.5323077,4.1710147 23.4964103,4.17184543 C23.3466667,4.17184543 23.1969231,4.18015279 23.0467692,4.19552141 L23.0451282,4.19552141 C22.2693333,4.27111839 21.5485128,4.76623704 21.1989744,5.4781778 L21.1989744,5.47900853 L21.1989744,5.48150074 C20.6685128,6.52739737 20.5626667,7.74982539 20.5466667,8.96353069 C23.5202051,9.15999975 26.5113846,9.88232471 29.1349744,11.4092175 L29.1390769,11.4092175 L29.1768205,11.4316473 C29.2264615,11.4615538 29.3187692,11.5126441 29.4020513,11.5575039 C29.5821538,11.4096328 29.7729231,11.2571928 29.990359,11.1259365 C30.7858462,10.5896964 31.7282051,10.3230302 32.6705641,10.3230302 C33.0890256,10.3230302 33.5078974,10.377028 33.9140513,10.4825315 L33.9156923,10.4825315 L33.9325128,10.4875159 C33.9382564,10.4883466 33.9427692,10.4904235 33.9476923,10.4904235 L33.9476923,10.4912542 C34.9076923,10.7383982 35.7762051,11.2966527 36.4301538,12.0492996 C37.0832821,12.8031925 37.5230769,13.7568774 37.6088205,14.7923898 L37.6088205,14.7948821 L37.608,14.7948821 Z M32.8034872,20.4044269 C32.8034872,19.0573885 32.3234872,17.7041195 31.5464615,16.6146093 C29.9969231,14.4314351 27.5928205,13.0075535 25.0923077,12.2137853 L25.0746667,12.2075548 C24.5946667,12.0584377 24.1097436,11.9263506 23.6211282,11.8133705 C22.1597949,11.4765071 20.6611282,11.3086984 19.1645128,11.3086984 C17.1542564,11.3086984 15.1444103,11.6098402 13.2198974,12.2108777 C10.7197949,13.0141994 8.30789744,14.4281121 6.76164103,16.6183476 L6.76164103,16.620009 C5.97805128,17.713673 5.51897436,19.071511 5.51897436,20.4235338 C5.51897436,20.9211447 5.58051282,21.4187556 5.7105641,21.9030746 L5.71220513,21.9039054 C5.99364103,22.9905081 6.54379487,23.9608077 7.25641026,24.8060816 C7.96861538,25.653017 8.84205128,26.3753419 9.76102564,26.9647491 C9.96451282,27.0922671 10.1688205,27.2139699 10.3780513,27.3331805 C13.0471795,28.8413817 16.1208205,29.5026476 19.1723077,29.5026476 C19.6884103,29.5026476 20.2073846,29.4843714 20.7202051,29.4465729 C23.7930256,29.1898755 26.8789744,28.2714968 29.3733333,26.3948642 L29.3741538,26.3927874 C30.1684103,25.7988111 30.904,25.0793937 31.4853333,24.2611188 C32.0695385,23.4428438 32.4974359,22.5273728 32.6873846,21.5338125 L32.6873846,21.5309049 L32.6882051,21.5300742 C32.7657436,21.1587352 32.8034872,20.7824118 32.8034872,20.4044269 Z M28.8490256,4.94193771 C28.8490256,4.98264377 28.8498462,5.02459594 28.8539487,5.06696348 L28.8539487,5.06945568 L28.8539487,5.0744401 C28.8732308,5.59738841 29.1169231,6.08419971 29.4877949,6.4439084 C29.8603077,6.80361709 30.3546667,7.02625433 30.8564103,7.02833117 L30.8629744,7.02833117 L30.8695385,7.02833117 C30.905641,7.03123875 30.9425641,7.03123875 30.9778462,7.03123875 C31.4841026,7.03206949 31.9866667,6.81109371 32.3641026,6.45263113 C32.742359,6.09250707 32.9913846,5.6027882 33.0114872,5.07527084 L33.0123077,5.07277863 L33.0123077,5.06945568 C33.0155897,5.02916499 33.0172308,4.99095113 33.0172308,4.9498297 C33.0172308,4.40694372 32.7665641,3.88939519 32.3739487,3.50601053 C31.9829744,3.12304123 31.4566154,2.8858661 30.9372308,2.88711221 C30.7698462,2.88711221 30.6041026,2.91037282 30.4412308,2.96146308 L30.4363077,2.96229382 L30.4313846,2.96437066 C30.0034872,3.07693538 29.6026667,3.34401701 29.3142564,3.69874128 C29.0246154,4.05180408 28.8490256,4.48794048 28.8490256,4.94193771 Z M6.89948718,13.0117072 C6.50194872,12.8243763 6.09087179,12.6906278 5.68471795,12.6922892 C5.61661538,12.6922892 5.54769231,12.6964429 5.47958974,12.7039195 L5.47015385,12.7039195 L5.46071795,12.7051656 C4.87733333,12.721365 4.28861538,12.9788932 3.84676923,13.3917689 C3.40451282,13.8029833 3.112,14.3583303 3.0894359,14.9705827 L3.0894359,14.9763979 L3.08861538,14.9813823 C3.08451282,15.0308111 3.08287179,15.0802399 3.08287179,15.1275918 C3.08287179,15.5051613 3.19733333,15.8702698 3.39138462,16.2025642 C3.53497436,16.4497082 3.72328205,16.6756684 3.93620513,16.8717221 C4.61805128,15.3601979 5.68307692,14.0775415 6.89948718,13.0117072 Z M35.2289231,15.0432721 C35.2281026,14.7163775 35.1542564,14.390729 34.9926154,14.087095 L34.9885128,14.0833567 L34.9868718,14.0783722 C34.7706667,13.6272826 34.4309744,13.2866808 34.0211282,13.0544901 C33.6116923,12.8210533 33.1325128,12.7018427 32.6516923,12.7018427 C32.2172308,12.7018427 31.7848205,12.8002849 31.4008205,12.9955079 C32.6213333,14.0684034 33.6916923,15.3577057 34.3837949,16.875045 C34.6065641,16.6789913 34.7965128,16.4389086 34.9384615,16.1722423 C35.1238974,15.8225025 35.2289231,15.4303951 35.2289231,15.0432721 Z M25.5325916,22.7864125 C25.3454649,22.6798764 25.1291124,22.6153846 24.8997707,22.6153846 C24.7150795,22.6153846 24.5230819,22.6617047 24.3525977,22.7611146 C22.7382753,23.6069902 20.8398126,24.0701908 18.9551509,24.0701908 C17.5409444,24.0701908 16.135262,23.8083043 14.8619078,23.2592334 L14.8554132,23.256383 L14.8489186,23.2542451 C14.656921,23.1854776 14.438133,23.0386787 14.1994552,22.8993622 C14.0780867,22.8305947 13.9514413,22.7618273 13.8109949,22.7115878 C13.6721721,22.6595668 13.5183304,22.6232234 13.3535291,22.6232234 C13.2171418,22.6232234 13.0738539,22.6503028 12.9325956,22.7065995 C12.9252892,22.7090937 12.9183886,22.7115878 12.9110821,22.714082 L12.911894,22.714082 C12.6898587,22.7885504 12.5161272,22.9246601 12.4045007,23.0860677 C12.2880032,23.2524636 12.2307692,23.4459389 12.2307692,23.6387016 C12.2307692,23.81258 12.2774494,23.9868147 12.374463,24.1446592 C12.4666056,24.2943086 12.6082698,24.4250737 12.7937728,24.5127255 C14.613894,25.5905576 16.7571232,26.0786998 18.9084708,26.0769182 C20.8483368,26.0769182 22.7995684,25.6828414 24.5372889,24.9652368 L24.5466249,24.9602485 L24.5551491,24.9559728 C24.784085,24.8373222 25.088521,24.7304297 25.3755026,24.5747231 C25.5175727,24.4952664 25.6559896,24.4036952 25.7749226,24.284332 C25.8938556,24.1656813 25.9896514,24.0192387 26.0436381,23.8460729 L26.0436381,23.8453603 C26.0659634,23.7691104 26.0769231,23.6942857 26.0769231,23.6201736 C26.0769231,23.4783629 26.0371434,23.3440348 25.9713853,23.2232463 C25.8751835,23.0418855 25.7172827,22.8925924 25.5325916,22.7864125 Z M13.3846154,15.6923077 C12.1101121,15.6923077 11.0769231,16.7166111 11.0769231,18 C11.0769231,19.2745033 12.1012265,20.3076923 13.3846154,20.3076923 C14.6591187,20.3076923 15.6923077,19.2833889 15.6923077,18 C15.6923077,16.7254967 14.6680043,15.6923077 13.3846154,15.6923077 Z M24.9230769,15.6923077 C23.6485737,15.6923077 22.6153846,16.7166111 22.6153846,18 C22.6153846,19.2745033 23.6396881,20.3076923 24.9230769,20.3076923 C26.1975802,20.3076923 27.2307692,19.2833889 27.2307692,18 C27.2307692,16.7254967 26.2064658,15.6923077 24.9230769,15.6923077 Z"/></g></g></svg>